<svg clip-rule="evenodd" fill-rule="evenodd" height="1001.338" image-rendering="optimizeQuality" shape-rendering="geometricPrecision" text-rendering="geometricPrecision" viewBox="0 0 6806 10431" width="653.333" xmlns="http://www.w3.org/2000/svg"><path d="M1201 8764l284 1662L5171 10l-526 513z" fill="#96989a"/><path d="M652 8058C417 5274 1685 3335 2179 2508l965 52c-985 1211-1810 2820-2084 4491-165 1008-372 1317-408 1007z" fill="#373435"/><path d="M6 5310c1480 266 3334-504 4405-888C3189 5290 1483 6050 26 5936z" fill="#af378f"/><path d="M2500 1477C3331 621 9504-37 5055 2909c3627-355 855 2698-1770 3128 20-209 40-169 121-343 925-121 2414-828 2414-1958 0-383-1026-343-1268-343-158-43-256-271-120-464 201-101 1852-1132 1227-1553-393-265-3182 172-3159 101z" fill="#843d8e"/></svg>